<svg width="8" height="13" viewBox="0 0 8 13" fill="none" xmlns="http://www.w3.org/2000/svg">
<path d="M4.66663 4.99992H7.66663L7.33329 6.33325H4.66663V12.3333H3.33329V6.33325H0.666626V4.99992H3.33329V3.75192C3.33329 2.56325 3.45729 2.13192 3.68929 1.69725C3.91663 1.26779 4.26783 0.916591 4.69729 0.689252C5.13196 0.457252 5.56329 0.333252 6.75196 0.333252C7.09996 0.333252 7.40529 0.366585 7.66663 0.433252V1.66659H6.75196C5.86929 1.66659 5.60063 1.71859 5.32663 1.86525C5.12396 1.97325 4.97329 2.12392 4.86529 2.32659C4.71863 2.60059 4.66663 2.86925 4.66663 3.75192V4.99992Z" fill="white"/>
</svg>
