<svg width="14" height="14" viewBox="0 0 14 14" fill="none" xmlns="http://www.w3.org/2000/svg">
<path d="M2.66654 11H3.99988V12.3333H11.9999V1.66665H3.99988V2.99998H2.66654V0.99998C2.66654 0.823169 2.73678 0.653599 2.86181 0.528575C2.98683 0.403551 3.1564 0.333313 3.33321 0.333313H12.6665C12.8434 0.333313 13.0129 0.403551 13.1379 0.528575C13.263 0.653599 13.3332 0.823169 13.3332 0.99998V13C13.3332 13.1768 13.263 13.3464 13.1379 13.4714C13.0129 13.5964 12.8434 13.6666 12.6665 13.6666H3.33321C3.1564 13.6666 2.98683 13.5964 2.86181 13.4714C2.73678 13.3464 2.66654 13.1768 2.66654 13V11ZM3.99988 6.33331H8.66654V7.66665H3.99988V9.66665L0.666544 6.99998L3.99988 4.33331V6.33331Z" fill="#2E384D"/>
</svg>
