<svg width="12" height="15" viewBox="0 0 12 15" fill="none" xmlns="http://www.w3.org/2000/svg">
<path d="M0.666544 14.6667C0.666544 13.2522 1.22845 11.8956 2.22864 10.8955C3.22884 9.89526 4.58539 9.33335 5.99988 9.33335C7.41436 9.33335 8.77092 9.89526 9.77111 10.8955C10.7713 11.8956 11.3332 13.2522 11.3332 14.6667H9.99988C9.99988 13.6058 9.57845 12.5884 8.8283 11.8383C8.07816 11.0881 7.06074 10.6667 5.99988 10.6667C4.93901 10.6667 3.9216 11.0881 3.17145 11.8383C2.4213 12.5884 1.99988 13.6058 1.99988 14.6667H0.666544ZM5.99988 8.66669C3.78988 8.66669 1.99988 6.87669 1.99988 4.66669C1.99988 2.45669 3.78988 0.666687 5.99988 0.666687C8.20988 0.666687 9.99988 2.45669 9.99988 4.66669C9.99988 6.87669 8.20988 8.66669 5.99988 8.66669ZM5.99988 7.33335C7.47321 7.33335 8.66654 6.14002 8.66654 4.66669C8.66654 3.19335 7.47321 2.00002 5.99988 2.00002C4.52654 2.00002 3.33321 3.19335 3.33321 4.66669C3.33321 6.14002 4.52654 7.33335 5.99988 7.33335Z" fill="#2E384D"/>
</svg>
