<svg width="14" height="14" viewBox="0 0 14 14" fill="none" xmlns="http://www.w3.org/2000/svg">
<path d="M7.00004 4.99992C6.46961 4.99992 5.9609 5.21063 5.58583 5.5857C5.21075 5.96078 5.00004 6.46949 5.00004 6.99992C5.00004 7.53035 5.21075 8.03906 5.58583 8.41413C5.9609 8.78921 6.46961 8.99992 7.00004 8.99992C7.53047 8.99992 8.03918 8.78921 8.41426 8.41413C8.78933 8.03906 9.00004 7.53035 9.00004 6.99992C9.00004 6.46949 8.78933 5.96078 8.41426 5.5857C8.03918 5.21063 7.53047 4.99992 7.00004 4.99992ZM7.00004 3.66659C7.8841 3.66659 8.73194 4.01777 9.35706 4.6429C9.98218 5.26802 10.3334 6.11586 10.3334 6.99992C10.3334 7.88397 9.98218 8.73182 9.35706 9.35694C8.73194 9.98206 7.8841 10.3333 7.00004 10.3333C6.11599 10.3333 5.26814 9.98206 4.64302 9.35694C4.0179 8.73182 3.66671 7.88397 3.66671 6.99992C3.66671 6.11586 4.0179 5.26802 4.64302 4.6429C5.26814 4.01777 6.11599 3.66659 7.00004 3.66659ZM11.3334 3.49992C11.3334 3.72093 11.2456 3.93289 11.0893 4.08917C10.933 4.24545 10.7211 4.33325 10.5 4.33325C10.279 4.33325 10.0671 4.24545 9.91078 4.08917C9.7545 3.93289 9.66671 3.72093 9.66671 3.49992C9.66671 3.2789 9.7545 3.06694 9.91078 2.91066C10.0671 2.75438 10.279 2.66659 10.5 2.66659C10.7211 2.66659 10.933 2.75438 11.0893 2.91066C11.2456 3.06694 11.3334 3.2789 11.3334 3.49992ZM7.00004 1.66659C5.35071 1.66659 5.08137 1.67125 4.31404 1.70525C3.79137 1.72992 3.44071 1.79992 3.11537 1.92659C2.82604 2.03859 2.61737 2.17259 2.39537 2.39525C2.18671 2.59685 2.02628 2.84297 1.92604 3.11525C1.79937 3.44192 1.72937 3.79192 1.70537 4.31392C1.67071 5.04992 1.66671 5.30725 1.66671 6.99992C1.66671 8.64925 1.67137 8.91858 1.70537 9.68592C1.73004 10.2079 1.80004 10.5593 1.92604 10.8839C2.03937 11.1739 2.17271 11.3826 2.39404 11.6039C2.61871 11.8279 2.82737 11.9619 3.11404 12.0726C3.44337 12.1999 3.79404 12.2706 4.31404 12.2946C5.05004 12.3293 5.30737 12.3333 7.00004 12.3333C8.64937 12.3333 8.91871 12.3286 9.68604 12.2946C10.2074 12.2699 10.5587 12.1999 10.884 12.0739C11.1727 11.9613 11.3827 11.8273 11.604 11.6059C11.8287 11.3813 11.9627 11.1726 12.0734 10.8859C12.2 10.5573 12.2707 10.2059 12.2947 9.68592C12.3294 8.94992 12.3334 8.69259 12.3334 6.99992C12.3334 5.35059 12.3287 5.08125 12.2947 4.31392C12.27 3.79259 12.2 3.44059 12.0734 3.11525C11.9729 2.84325 11.8128 2.59723 11.6047 2.39525C11.4032 2.18648 11.157 2.02603 10.8847 1.92592C10.558 1.79925 10.2074 1.72925 9.68604 1.70525C8.95004 1.67059 8.69271 1.66659 7.00004 1.66659ZM7.00004 0.333252C8.81137 0.333252 9.03737 0.339919 9.74804 0.373252C10.458 0.406585 10.9414 0.517919 11.3667 0.683252C11.8067 0.852585 12.1774 1.08192 12.548 1.45192C12.887 1.78518 13.1493 2.18831 13.3167 2.63325C13.4814 3.05792 13.5934 3.54192 13.6267 4.25192C13.658 4.96259 13.6667 5.18859 13.6667 6.99992C13.6667 8.81125 13.66 9.03725 13.6267 9.74792C13.5934 10.4579 13.4814 10.9413 13.3167 11.3666C13.1498 11.8118 12.8875 12.215 12.548 12.5479C12.2147 12.8868 11.8116 13.1491 11.3667 13.3166C10.942 13.4813 10.458 13.5933 9.74804 13.6266C9.03737 13.6579 8.81137 13.6666 7.00004 13.6666C5.18871 13.6666 4.96271 13.6599 4.25204 13.6266C3.54204 13.5933 3.05871 13.4813 2.63337 13.3166C2.18826 13.1496 1.78506 12.8872 1.45204 12.5479C1.11298 12.2147 0.850662 11.8116 0.683374 11.3666C0.518041 10.9419 0.406707 10.4579 0.373374 9.74792C0.342041 9.03725 0.333374 8.81125 0.333374 6.99992C0.333374 5.18859 0.340041 4.96259 0.373374 4.25192C0.406707 3.54125 0.518041 3.05859 0.683374 2.63325C0.850198 2.18804 1.11258 1.7848 1.45204 1.45192C1.78515 1.11274 2.18833 0.850405 2.63337 0.683252C3.05871 0.517919 3.54137 0.406585 4.25204 0.373252C4.96271 0.341919 5.18871 0.333252 7.00004 0.333252Z" fill="white"/>
</svg>
