<svg width="12" height="12" viewBox="0 0 12 12" fill="none" xmlns="http://www.w3.org/2000/svg">
<path d="M0.666667 0H11.3333C11.5101 0 11.6797 0.0702379 11.8047 0.195262C11.9298 0.320286 12 0.489856 12 0.666667V11.3333C12 11.5101 11.9298 11.6797 11.8047 11.8047C11.6797 11.9298 11.5101 12 11.3333 12H0.666667C0.489856 12 0.320286 11.9298 0.195262 11.8047C0.0702379 11.6797 0 11.5101 0 11.3333V0.666667C0 0.489856 0.0702379 0.320286 0.195262 0.195262C0.320286 0.0702379 0.489856 0 0.666667 0ZM1.33333 1.33333V10.6667H10.6667V1.33333H1.33333ZM3 4C2.73478 4 2.48043 3.89464 2.29289 3.70711C2.10536 3.51957 2 3.26522 2 3C2 2.73478 2.10536 2.48043 2.29289 2.29289C2.48043 2.10536 2.73478 2 3 2C3.26522 2 3.51957 2.10536 3.70711 2.29289C3.89464 2.48043 4 2.73478 4 3C4 3.26522 3.89464 3.51957 3.70711 3.70711C3.51957 3.89464 3.26522 4 3 4ZM2.33333 4.66667H3.66667V9.66667H2.33333V4.66667ZM6 4.95333C6.38933 4.57667 6.844 4.33333 7.33333 4.33333C8.714 4.33333 9.66667 5.45267 9.66667 6.83333V9.66667H8.33333V6.83333C8.33333 6.52391 8.21042 6.22717 7.99162 6.00838C7.77283 5.78958 7.47609 5.66667 7.16667 5.66667C6.85725 5.66667 6.5605 5.78958 6.34171 6.00838C6.12292 6.22717 6 6.52391 6 6.83333V9.66667H4.66667V4.66667H6V4.95333Z" fill="white"/>
</svg>
